<svg width="223" height="142" viewBox="0 0 223 142" fill="none" xmlns="http://www.w3.org/2000/svg">
<g filter="url(#filter0_d_3904_18496)">
<rect x="4" y="2" width="215" height="134" rx="12" fill="url(#paint0_linear_3904_18496)"/>
<g clip-path="url(#clip0_3904_18496)">
<path d="M84.9944 64.3965C84.7447 64.3997 84.501 64.4731 84.2911 64.6084C84.0813 64.7437 83.9138 64.9354 83.8079 65.1615L80.6804 73.0965L77.5499 65.1435C77.4421 64.9216 77.2748 64.7339 77.0666 64.6015C76.8584 64.4691 76.6176 64.3971 76.3709 64.3935C76.1984 64.3904 76.0271 64.4235 75.8682 64.4906C75.7093 64.5578 75.5663 64.6576 75.4484 64.7835C75.3277 64.9054 75.2326 65.0503 75.1688 65.2095C75.1049 65.3686 75.0735 65.539 75.0764 65.7105C75.0818 65.9105 75.1272 66.1073 75.2099 66.2895L79.0829 75.5475C79.2089 75.835 79.4132 76.0814 79.6724 76.2585C79.935 76.4459 80.2498 76.5461 80.5724 76.545H80.7959C81.1185 76.5461 81.4333 76.4459 81.6959 76.2585C81.9567 76.0799 82.1621 75.8314 82.2884 75.5415L86.1554 66.3C86.2376 66.1177 86.283 65.9209 86.2889 65.721C86.2915 65.5497 86.2602 65.3795 86.1966 65.2204C86.133 65.0612 86.0384 64.9163 85.9184 64.794C85.8007 64.6668 85.6577 64.5657 85.4985 64.4973C85.3394 64.4288 85.1676 64.3945 84.9944 64.3965Z" fill="white"/>
<path d="M96.2999 65.0564C95.3324 64.5487 94.256 64.2834 93.1634 64.2834C92.0707 64.2834 90.9944 64.5487 90.0269 65.0564C89.1274 65.569 88.3975 66.3333 87.9269 67.2554C87.4261 68.2529 87.1744 69.3569 87.1934 70.4729C87.1743 71.5885 87.426 72.692 87.9269 73.6889C88.3975 74.611 89.1274 75.3754 90.0269 75.8879C90.9944 76.3956 92.0707 76.6609 93.1634 76.6609C94.256 76.6609 95.3324 76.3956 96.2999 75.8879C97.2025 75.3748 97.9375 74.6116 98.4164 73.6904C98.9267 72.6957 99.1843 71.5907 99.1664 70.4729C99.1843 69.3546 98.9267 68.2491 98.4164 67.2539C97.9375 66.3327 97.2025 65.5696 96.2999 65.0564ZM96.0479 72.6119C95.7535 73.1316 95.3162 73.5559 94.7879 73.8344C94.2842 74.0891 93.7278 74.2218 93.1634 74.2218C92.599 74.2218 92.0425 74.0891 91.5389 73.8344C91.0166 73.5564 90.5862 73.1328 90.2999 72.6149C89.9729 72.0554 89.8064 71.3264 89.8064 70.4504C89.8064 69.5744 89.9699 68.8679 90.2999 68.3069C90.587 67.7925 91.0203 67.3749 91.5449 67.1069C92.0539 66.8544 92.6147 66.724 93.1829 66.7259C93.7436 66.7234 94.2971 66.8513 94.7999 67.0994C95.3275 67.3724 95.7642 67.793 96.0569 68.3099C96.3899 68.8694 96.5594 69.5894 96.5594 70.4504C96.5594 71.3114 96.3854 72.0539 96.0524 72.6119H96.0479Z" fill="white"/>
<path d="M120.667 66.7635C121.077 66.7519 121.485 66.8025 121.879 66.9135C122.293 67.0545 122.694 67.2291 123.079 67.4355C123.305 67.5749 123.572 67.6308 123.835 67.5935C124.097 67.5562 124.338 67.4281 124.516 67.2315C124.728 67.0145 124.847 66.7243 124.849 66.4215C124.85 66.2159 124.797 66.0138 124.696 65.8347C124.595 65.6557 124.449 65.5059 124.273 65.4C123.756 65.0719 123.202 64.8046 122.623 64.6035C121.936 64.3784 121.215 64.2709 120.492 64.2855C119.415 64.2792 118.352 64.5367 117.397 65.0355C116.453 65.5301 115.663 66.2754 115.114 67.1895C114.53 68.1856 114.234 69.3244 114.259 70.479C114.234 71.633 114.53 72.7714 115.114 73.767C115.663 74.6811 116.453 75.4264 117.397 75.921C118.352 76.4198 119.415 76.6773 120.492 76.671C121.215 76.6844 121.935 76.5759 122.622 76.35C123.201 76.1485 123.754 75.8807 124.272 75.552C124.425 75.4609 124.556 75.3363 124.654 75.1876C124.752 75.0388 124.815 74.8698 124.839 74.6932C124.862 74.5165 124.845 74.3369 124.79 74.1676C124.734 73.9984 124.64 73.844 124.516 73.716C124.338 73.5224 124.099 73.3963 123.838 73.3589C123.578 73.3214 123.312 73.375 123.087 73.5105C122.698 73.7182 122.292 73.8943 121.875 74.037C121.481 74.1471 121.072 74.1977 120.663 74.187C119.463 74.187 118.545 73.854 117.87 73.173C117.195 72.492 116.865 71.6085 116.865 70.473C116.865 69.3375 117.193 68.46 117.87 67.773C118.546 67.086 119.463 66.7635 120.667 66.7635Z" fill="white"/>
<path d="M135.538 64.9094C134.855 64.4841 134.062 64.2667 133.257 64.2839C132.399 64.2659 131.551 64.4728 130.798 64.8839C130.325 65.1551 129.884 65.4792 129.484 65.8499L129.414 65.9129V60.8204C129.413 60.4717 129.275 60.1374 129.029 59.8906C128.782 59.6438 128.448 59.5046 128.1 59.5034C127.927 59.5001 127.756 59.5332 127.596 59.6003C127.437 59.6675 127.294 59.7674 127.176 59.8934C127.056 60.0156 126.961 60.1606 126.898 60.3197C126.834 60.4788 126.803 60.649 126.805 60.8204V75.2534C126.804 75.4239 126.836 75.593 126.9 75.7509C126.965 75.9088 127.06 76.0522 127.18 76.1728C127.301 76.2933 127.444 76.3886 127.602 76.453C127.76 76.5175 127.929 76.5497 128.1 76.5479C128.271 76.5505 128.441 76.5191 128.6 76.4555C128.759 76.3919 128.903 76.2974 129.025 76.1774C129.152 76.0594 129.252 75.9161 129.319 75.757C129.387 75.5978 129.42 75.4262 129.417 75.2534V68.6849L129.426 68.6744C129.857 68.1322 130.367 67.6587 130.941 67.2704C131.484 66.9164 132.121 66.7321 132.769 66.7409C134.238 66.7409 134.922 67.5089 134.922 69.1604V75.2534C134.92 75.424 134.953 75.5931 135.017 75.751C135.082 75.9089 135.177 76.0523 135.298 76.1729C135.419 76.2934 135.562 76.3887 135.72 76.4531C135.878 76.5175 136.047 76.5497 136.218 76.5479C136.389 76.5505 136.559 76.5191 136.718 76.4555C136.877 76.3919 137.021 76.2974 137.143 76.1774C137.269 76.0592 137.369 75.916 137.436 75.7568C137.504 75.5976 137.537 75.4261 137.533 75.2534V68.9369C137.541 68.1328 137.369 67.3372 137.028 66.6089C136.702 65.9132 136.185 65.324 135.538 64.9094Z" fill="white"/>
<path d="M158.85 64.284H158.739C157.608 64.284 156.556 64.7865 155.613 65.775L155.55 65.85V65.712C155.55 65.539 155.516 65.3677 155.45 65.2078C155.384 65.0479 155.287 64.9027 155.165 64.7803C155.042 64.658 154.897 64.561 154.737 64.4949C154.577 64.4288 154.406 64.3948 154.233 64.395C154.06 64.3919 153.889 64.425 153.73 64.4922C153.571 64.5593 153.428 64.6591 153.31 64.785C153.19 64.9072 153.095 65.0521 153.031 65.2112C152.967 65.3704 152.936 65.5406 152.938 65.712V75.252C152.937 75.4225 152.969 75.5917 153.033 75.7496C153.098 75.9074 153.193 76.0509 153.313 76.1714C153.434 76.292 153.577 76.3873 153.735 76.4517C153.893 76.5161 154.062 76.5483 154.233 76.5465C154.404 76.5492 154.574 76.5178 154.734 76.4542C154.893 76.3906 155.038 76.2961 155.16 76.176C155.286 76.0579 155.386 75.9146 155.453 75.7554C155.52 75.5963 155.553 75.4248 155.55 75.252V68.583V68.571C155.898 68.0583 156.355 67.6283 156.888 67.311C157.437 66.99 158.063 66.8236 158.7 66.8295H158.811C159.155 66.84 159.489 66.7163 159.744 66.4845C159.868 66.3706 159.967 66.2314 160.033 66.0761C160.1 65.9209 160.132 65.7533 160.128 65.5845C160.131 65.4154 160.101 65.2473 160.039 65.09C159.977 64.9326 159.884 64.7892 159.766 64.668C159.649 64.5431 159.507 64.4444 159.349 64.3782C159.191 64.312 159.021 64.2799 158.85 64.284Z" fill="white"/>
<path d="M162.75 64.3965C162.577 64.3935 162.406 64.4266 162.247 64.4938C162.088 64.561 161.944 64.6607 161.826 64.7865C161.706 64.9087 161.611 65.0536 161.548 65.2128C161.484 65.3719 161.453 65.5421 161.455 65.7135V75.2535C161.454 75.424 161.486 75.5931 161.55 75.751C161.615 75.9089 161.71 76.0523 161.831 76.1728C161.951 76.2934 162.095 76.3887 162.252 76.4531C162.41 76.5175 162.579 76.5498 162.75 76.548C162.921 76.5505 163.091 76.519 163.251 76.4554C163.41 76.3919 163.555 76.2974 163.677 76.1775C163.803 76.0591 163.903 75.9158 163.97 75.7567C164.037 75.5976 164.07 75.4262 164.067 75.2535V65.7135C164.072 65.5392 164.041 65.3658 163.976 65.2039C163.912 65.042 163.815 64.8949 163.692 64.7716C163.569 64.6484 163.421 64.5515 163.26 64.487C163.098 64.4225 162.924 64.3917 162.75 64.3965Z" fill="white"/>
<path d="M162.835 59.8365H162.702C162.324 59.8381 161.961 59.989 161.694 60.2565C161.426 60.524 161.276 60.8863 161.274 61.2645V61.35C161.275 61.7285 161.426 62.0912 161.693 62.359C161.961 62.6268 162.323 62.7779 162.702 62.7795H162.835C163.214 62.7787 163.577 62.6278 163.845 62.3598C164.112 62.0919 164.263 61.7287 164.263 61.35V61.2615C164.263 60.883 164.112 60.5203 163.844 60.2526C163.577 59.985 163.214 59.8343 162.835 59.8335V59.8365Z" fill="white"/>
<path d="M111.775 68.5334C111.607 68.5266 111.438 68.5574 111.283 68.6235C111.127 68.6897 110.988 68.7895 110.875 68.9159C110.616 69.2161 110.48 69.6037 110.494 70.0004V70.5224C110.449 71.2994 110.149 72.4409 109.444 73.1099C109.118 73.4488 108.725 73.7164 108.29 73.8958C107.855 74.0753 107.387 74.1626 106.917 74.1524H106.863C106.392 74.1617 105.923 74.0732 105.488 73.8925C105.052 73.7118 104.659 73.4427 104.332 73.1024C103.636 72.4349 103.336 71.3024 103.291 70.5239V70.0004C103.291 69.5324 103.162 69.1679 102.909 68.9144C102.793 68.793 102.653 68.6967 102.498 68.6312C102.344 68.5657 102.177 68.5324 102.009 68.5334C101.84 68.5266 101.672 68.5574 101.516 68.6235C101.36 68.6897 101.221 68.7895 101.109 68.9159C100.844 69.2234 100.708 69.6207 100.728 70.0259V70.3499C100.728 72.1124 101.394 73.8299 102.508 74.9444C103.623 76.0589 105.007 76.6439 106.762 76.7444H107.028C108.724 76.6664 110.155 76.0589 111.276 74.9444C112.396 73.8299 113.029 72.1349 113.058 70.3499V70.0259C113.058 69.5489 112.926 69.1649 112.675 68.9144C112.559 68.7928 112.42 68.6963 112.265 68.6308C112.11 68.5653 111.944 68.5321 111.775 68.5334Z" fill="white"/>
<path d="M148.272 65.1C147.371 64.5451 146.329 64.2623 145.272 64.2855C144.046 64.2855 142.995 64.5855 142.147 65.16C141.315 65.7261 140.662 66.5182 140.265 67.443C139.859 68.4017 139.655 69.4335 139.665 70.4745C139.665 72.414 140.205 73.9455 141.271 75.0285C142.338 76.1115 143.836 76.662 145.719 76.662C147.136 76.7257 148.54 76.3715 149.757 75.6435C150.357 75.2985 150.483 74.8665 150.483 74.5665C150.485 74.4087 150.454 74.2522 150.392 74.1074C150.329 73.9626 150.237 73.8327 150.12 73.7265C149.898 73.5176 149.604 73.4026 149.299 73.4055C149.115 73.4028 148.932 73.444 148.767 73.5255C148.349 73.7344 147.911 73.8983 147.459 74.0145C146.947 74.135 146.422 74.1919 145.896 74.184C144.804 74.184 143.946 73.917 143.355 73.3905C142.875 72.9645 142.584 72.3975 142.395 71.694L142.344 71.4795H149.544C149.717 71.4867 149.89 71.4584 150.051 71.3962C150.213 71.334 150.36 71.2393 150.483 71.1179C150.607 70.9966 150.704 70.8511 150.769 70.6907C150.834 70.5302 150.865 70.3581 150.861 70.185C150.87 69.1744 150.647 68.1752 150.208 67.2645C149.778 66.3763 149.107 65.6264 148.272 65.1ZM142.317 69.2505C142.338 69.1005 142.366 68.982 142.366 68.982C142.437 68.589 142.584 68.2138 142.8 67.878C143.07 67.4567 143.451 67.1183 143.901 66.9C144.326 66.6934 144.793 66.5861 145.266 66.5861C145.739 66.5861 146.206 66.6934 146.631 66.9C147.085 67.1197 147.472 67.4581 147.75 67.8795C148.008 68.2763 148.172 68.7267 148.23 69.1965V69.2445L142.317 69.2505Z" fill="white"/>
<path d="M170.596 62.1974C170.851 61.9604 171.256 61.8404 171.796 61.8404C171.81 61.8404 171.895 61.8404 172.353 61.9034C172.538 61.9488 172.727 61.9725 172.917 61.9739C173.062 61.975 173.205 61.9456 173.337 61.8877C173.47 61.8298 173.589 61.7447 173.686 61.6379C173.787 61.5358 173.866 61.4149 173.92 61.2821C173.974 61.1493 174.001 61.0072 174 60.8639C173.999 60.6492 173.932 60.44 173.809 60.2639C173.693 60.0885 173.533 59.946 173.346 59.8499C172.705 59.5317 171.999 59.3688 171.283 59.3744C170.678 59.3743 170.081 59.5183 169.542 59.7944C168.961 60.099 168.486 60.5729 168.18 61.1534C167.838 61.7639 167.665 62.5469 167.665 63.4844V64.5239H166.603C166.456 64.522 166.31 64.5493 166.174 64.6041C166.038 64.6589 165.913 64.7403 165.808 64.8434C165.702 64.9491 165.618 65.0747 165.56 65.2131C165.503 65.3514 165.473 65.4998 165.473 65.6497C165.473 65.7995 165.503 65.9479 165.56 66.0863C165.618 66.2246 165.702 66.3502 165.808 66.4559C165.912 66.5629 166.036 66.6476 166.174 66.7048C166.311 66.7621 166.459 66.7907 166.608 66.7889H167.67V75.3074C167.668 75.4743 167.699 75.6399 167.762 75.7945C167.825 75.9491 167.918 76.0895 168.036 76.2076C168.154 76.3257 168.294 76.419 168.449 76.4821C168.603 76.5452 168.769 76.5767 168.936 76.5749C169.103 76.5763 169.268 76.5448 169.422 76.4823C169.577 76.4197 169.717 76.3273 169.836 76.2104C169.959 76.0955 170.057 75.956 170.122 75.801C170.188 75.6459 170.22 75.4788 170.217 75.3104V66.7889H172.758C172.91 66.7934 173.062 66.7655 173.202 66.7071C173.343 66.6486 173.47 66.561 173.574 66.4499C173.734 66.2916 173.843 66.089 173.887 65.8681C173.931 65.6473 173.908 65.4184 173.82 65.2109C173.733 65.0035 173.585 64.827 173.396 64.7043C173.207 64.5815 172.986 64.5182 172.761 64.5224H170.22V63.5519C170.22 62.8844 170.347 62.4284 170.596 62.1974Z" fill="white"/>
<path d="M185.637 64.89C185.522 64.7674 185.382 64.6701 185.227 64.6045C185.072 64.5389 184.905 64.5064 184.737 64.509C184.201 64.509 183.793 64.7955 183.559 65.34L180.285 73.2555L177.076 65.295C176.98 65.0678 176.82 64.8731 176.616 64.734C176.406 64.5857 176.154 64.5071 175.897 64.509C175.729 64.5058 175.562 64.5381 175.407 64.6037C175.252 64.6694 175.112 64.7669 174.997 64.89C174.881 65.0087 174.788 65.1493 174.726 65.3037C174.664 65.4582 174.633 65.6235 174.634 65.79C174.637 65.9698 174.673 66.1475 174.742 66.3135L178.909 76.464L177.492 80.1075C177.437 80.2512 177.408 80.4037 177.408 80.5575C177.406 80.7191 177.436 80.8795 177.497 81.0293C177.557 81.1792 177.647 81.3156 177.76 81.4305C177.871 81.5494 178.006 81.6437 178.155 81.7075C178.305 81.7713 178.466 81.8032 178.629 81.801C178.99 81.801 179.488 81.651 179.806 80.9475L185.917 66.2625C185.974 66.1119 186.002 65.9523 186.001 65.7915C186.003 65.6246 185.972 65.4591 185.909 65.3044C185.847 65.1496 185.754 65.0088 185.637 64.89Z" fill="white"/>
<path d="M46.3949 67.3695C46.9687 66.8121 47.4218 66.1428 47.726 65.403C48.0303 64.6632 48.1791 63.8687 48.1634 63.069C48.1795 62.2691 48.0308 61.4746 47.7265 60.7347C47.4223 59.9949 46.969 59.3256 46.3949 58.7685C45.8362 58.1964 45.1666 57.7445 44.4271 57.4404C43.6876 57.1363 42.8938 56.9864 42.0944 57C41.2908 56.9839 40.4924 57.1325 39.7484 57.4367C39.0045 57.7408 38.3306 58.1941 37.7684 58.7685C37.1959 59.3321 36.744 60.0062 36.4399 60.7499C36.1359 61.4935 35.9862 62.2912 35.9999 63.0945C35.9999 64.7565 36.5804 66.2085 37.7999 67.3695C38.3567 67.9421 39.0252 68.3944 39.7639 68.6983C40.5026 69.0023 41.2958 69.1514 42.0944 69.1365C42.894 69.1525 43.6885 69.0039 44.4283 68.6999C45.1681 68.3959 45.8375 67.9431 46.3949 67.3695ZM38.4794 63.069C38.4692 62.5929 38.5571 62.1199 38.7378 61.6794C38.9184 61.2388 39.1879 60.8403 39.5294 60.5085C39.8611 60.1673 40.2595 59.898 40.6997 59.7174C41.1399 59.5368 41.6126 59.4486 42.0884 59.4585C42.5634 59.4542 43.0344 59.5449 43.4739 59.7252C43.9133 59.9055 44.3123 60.1718 44.6474 60.5085C44.9889 60.8403 45.2583 61.2388 45.439 61.6794C45.6196 62.1199 45.7076 62.5929 45.6974 63.069C45.7074 63.5447 45.6193 64.0175 45.4387 64.4577C45.258 64.898 44.9887 65.2963 44.6474 65.628C44.316 65.9695 43.9177 66.2391 43.4774 66.4198C43.037 66.6004 42.5642 66.6883 42.0884 66.678C41.6126 66.688 41.1399 66.5999 40.6996 66.4192C40.2594 66.2386 39.861 65.9692 39.5294 65.628C39.1881 65.2963 38.9187 64.898 38.7381 64.4577C38.5574 64.0175 38.4694 63.5447 38.4794 63.069Z" fill="white"/>
<path d="M60.4589 58.6365C60.3445 58.5173 60.2072 58.4225 60.0553 58.3577C59.9033 58.2929 59.7398 58.2595 59.5746 58.2595C59.4094 58.2595 59.246 58.2929 59.094 58.3577C58.942 58.4225 58.8048 58.5173 58.6904 58.6365L38.5334 78.768C38.4142 78.8823 38.3194 79.0194 38.2547 79.1713C38.1899 79.3231 38.1565 79.4865 38.1565 79.6515C38.1565 79.8166 38.1899 79.98 38.2547 80.1318C38.3194 80.2836 38.4142 80.4208 38.5334 80.535C38.7771 80.7656 39.0979 80.8971 39.4334 80.904C39.7698 80.9021 40.0924 80.7698 40.3334 80.535L60.4589 60.4035C60.5777 60.2891 60.6721 60.1518 60.7367 60C60.8012 59.8482 60.8344 59.685 60.8344 59.52C60.8344 59.3551 60.8012 59.1918 60.7367 59.04C60.6721 58.8882 60.5777 58.751 60.4589 58.6365Z" fill="white"/>
<path d="M61.209 73.2748C61.04 73.2681 60.8716 73.2988 60.716 73.365C60.5603 73.4311 60.4213 73.531 60.309 73.6573C60.0487 73.9573 59.9124 74.3451 59.928 74.7418V75.2638C59.883 76.0408 59.5815 77.1823 58.878 77.8513C58.5518 78.1916 58.1587 78.4605 57.7234 78.6413C57.2882 78.822 56.8202 78.9105 56.349 78.9013H56.2965C55.825 78.9107 55.3567 78.8222 54.9212 78.6414C54.4857 78.4607 54.0923 78.1917 53.766 77.8513C53.07 77.1838 52.77 76.0513 52.716 75.2728V74.7433C52.716 74.2753 52.5885 73.9108 52.335 73.6573C52.2187 73.536 52.079 73.4396 51.9242 73.3741C51.7695 73.3086 51.603 73.2753 51.435 73.2763C51.266 73.2699 51.0978 73.3008 50.9422 73.3669C50.7866 73.433 50.6475 73.5327 50.535 73.6588C50.2715 73.9669 50.1357 74.364 50.1555 74.7688V75.0853C50.1555 76.8478 50.82 78.5653 51.936 79.6798C53.052 80.7943 54.435 81.3778 56.1885 81.4798H56.454C58.152 81.4018 59.5815 80.7943 60.702 79.6798C61.8225 78.5653 62.4525 76.8778 62.4825 75.0853V74.7688C62.4825 74.2918 62.349 73.9063 62.1 73.6573C61.9849 73.5368 61.8466 73.4408 61.6935 73.3751C61.5404 73.3093 61.3756 73.2753 61.209 73.2748Z" fill="white"/>
</g>
</g>
<defs>
<filter id="filter0_d_3904_18496" x="0" y="0" width="223" height="142" filterUnits="userSpaceOnUse" color-interpolation-filters="sRGB">
<feFlood flood-opacity="0" result="BackgroundImageFix"/>
<feColorMatrix in="SourceAlpha" type="matrix" values="0 0 0 0 0 0 0 0 0 0 0 0 0 0 0 0 0 0 127 0" result="hardAlpha"/>
<feOffset dy="2"/>
<feGaussianBlur stdDeviation="2"/>
<feColorMatrix type="matrix" values="0 0 0 0 0 0 0 0 0 0 0 0 0 0 0 0 0 0 0.1 0"/>
<feBlend mode="normal" in2="BackgroundImageFix" result="effect1_dropShadow_3904_18496"/>
<feBlend mode="normal" in="SourceGraphic" in2="effect1_dropShadow_3904_18496" result="shape"/>
</filter>
<linearGradient id="paint0_linear_3904_18496" x1="219" y1="136" x2="32.6773" y2="-30.1576" gradientUnits="userSpaceOnUse">
<stop stop-color="#01103A"/>
<stop offset="1" stop-color="#15265C"/>
</linearGradient>
<clipPath id="clip0_3904_18496">
<rect width="150" height="24.8055" fill="white" transform="translate(36 57)"/>
</clipPath>
</defs>
</svg>
